<svg xmlns="http://www.w3.org/2000/svg" id="Warstwa_2" data-name="Warstwa 2" viewBox="0 0 1055.41 232.48">
  <defs>
    <style>
      .cls-1 {
        fill: #bbb;
        stroke-width: 0px;
      }
    </style>
  </defs>
  <g id="Warstwa_1-2" data-name="Warstwa 1">
    <path class="cls-1" d="M11.16,41.1c.1,19.83.11,46.17,0,66,7.64.08,15.37,0,17.89,0,39.82-.06,54.92-.06,94.74,0,2.47,0,5.82-.02,13.62-.02-.13-19.83.06-42.91.05-62.75,0-.93.03-1.94-.03-3.18-6.04,0-12.02.07-18.09.07v-10.57h29.63v88.69H0V30.75h28.11v10.39"/>
    <path class="cls-1" d="M620.61,111.99c0-1.35,0-2.17,0-3.19,0-15.92.01-31.84-.03-47.76,0-1.5-.02-3.16-.64-4.46-.53-1.1-1.9-2.42-2.96-2.47-1.11-.06-2.89,1.01-3.33,2.03-.84,1.94-1.29,4.2-1.3,6.34-.1,15.25-.06,30.51-.06,45.76,0,1.14,0,2.27,0,3.68h-16.38c0-1.13,0-2.23,0-3.34,0-15.63.01-31.27-.02-46.9,0-1.51.03-3.13-.49-4.5-.43-1.14-1.65-2.78-2.51-2.78-1.35,0-3.26.89-3.9,1.99-.94,1.64-1.31,3.79-1.33,5.73-.11,15.44-.08,30.89-.09,46.33,0,1.12,0,2.23,0,3.54h-15.9V42.71h15.89v6.4c2.45-4.69,5.97-7.2,11.32-7.3,5.27-.11,9.29,1.7,11.93,6.61.37-.31.69-.48.85-.75,3.54-5.81,9.09-6.54,15.04-5.6,5.98.94,9.51,5.61,10.2,13.1.32,3.5.47,7.04.46,10.56-.05,14.49-.24,28.98-.24,43.47,0,.99-.01,2.79-.01,2.79"/>
    <path class="cls-1" d="M211.72,30.31c5.91.2,15.23.04,21.15.07,12.48.06,18.47,5.4,18.79,17.86.39,14.85.24,29.72.03,44.58-.05,3.25-1.04,6.57-2.11,9.69-2.13,6.19-6.93,9.25-13.28,9.5-7.43.3-17.19.07-24.63.2M227.97,44.82v52.88c5.97,1.01,7.57-.28,7.58-5.94,0-13.81.03-27.62-.03-41.43-.02-5.45-1.88-6.78-7.55-5.52Z"/>
    <path class="cls-1" d="M476.23,30.47h15.61v29h8.3v-28.91h15.7v81.34h-15.5c-.04-.94-.13-1.95-.13-2.96-.01-10.39-.06-20.78.04-31.17.02-2.24-.61-3-2.9-2.92-6.36.22-5.32-.71-5.36,5.25-.06,9.53-.02,19.06-.02,28.6,0,1.03,0,2.05,0,3.28h-15.73V30.47Z"/>
    <path class="cls-1" d="M280.7,117.2c2-3.36,3.78-6.36,5.43-9.13,3.35.97,6.38,2.1,9.51,2.69,7.98,1.49,12.43-3.48,10.51-11.87-2.02,3.59-4.81,5.65-8.9,5.82-8.66.36-13.69-3.72-14.8-12.34-.33-2.54-.52-5.12-.5-7.68.1-10-.02-20.01.57-29.98.54-9.3,5.55-13.32,14.68-12.81,3.83.22,5.37,1.36,9.41,7.23v-6.44h16.7c.05.97.14,1.8.14,2.64,0,18.68.03,37.35-.03,56.03,0,2.37-.24,4.77-.72,7.09-1.41,6.73-5.28,11.33-12.16,12.91-7.83,1.8-15.69,1.99-23.38-.68-2.19-.76-4.15-2.2-6.46-3.46ZM306.58,73.78s.02,0,.03,0c0-4.38.1-8.75-.06-13.12-.06-1.55-.43-3.3-1.28-4.54-.65-.96-2.35-1.86-3.41-1.69-1.1.17-2.37,1.48-2.87,2.61-.59,1.32-.55,2.97-.56,4.48-.05,7.61-.05,15.22,0,22.83.01,1.7-.06,3.57.61,5.05.55,1.24,1.98,2.43,3.28,2.91,1.79.66,3.09-.6,3.61-2.34.35-1.17.6-2.4.62-3.62.07-4.18.03-8.37.03-12.55Z"/>
    <path class="cls-1" d="M1014.15,30.05c4.19,0,11.93-.16,16.48-.16v15.46c.73-.19,1.14-.18,1.37-.38,5.02-4.16,10.59-4.06,16.13-1.58,5.27,2.36,6.93,7.47,7.05,12.57.33,14.11.3,29.36-.02,43.47-.07,3.06-1.54,5.14-2.98,7.96-3.31,6.47-14.18,9.34-20.05-.25-.27-.46-.53-.75-.75-1.03-.34-.37-.39-.4-.71-.69,0,1.88.04,4.46.04,6.73-5.26,0-10.28.04-15.31-.07-.46,0-1.41-.04-1.41-.04,0,0,.01-2.92.01-3.68M1038.91,77.73s.03,0,.04,0c0-3.43.06-6.86-.02-10.29-.07-3.32-.19-6.65-.45-9.96-.15-1.96-2.09-3.18-3.77-3.1-1.85,0-3.17,1.32-3.57,2.58-.4,1.25-.33,3.97-.34,5.77-.06,7.91-.07,15.82,0,23.72.03,3.33.18,6.66.5,9.97.27,2.79,1.86,4.1,4.32,3.9,3.07-.25,3.18-2.77,3.24-4.86.17-5.9.06-11.81.06-17.72Z"/>
    <path class="cls-1" d="M564.08,112h-16.01c-.1-2.07-.19-4-.3-6.35-.5.53-.73.69-.83.9-2.58,5.48-11.2,7.08-17.2,4.92-5.51-1.99-5.52-6.62-5.96-11.62-.41-4.64-.3-9.33-.32-14-.03-13.06-.01-26.13-.01-39.19,0-1.23,0-2.45,0-3.9h16.51v3.42c0,15.64-.08,29.39-.07,45.03,0,1.43-.16,6.35.43,7.51.63,1.23,2.07,1.63,3.43,1.57,2.78-.11,3.86-.52,4.04-2.76s.07-4.24.09-6.42c.12-14.87.17-29.75.25-44.62,0-1.21.11-2.43.18-3.78h15.77v69.31Z"/>
    <path class="cls-1" d="M706.99,112.05h-16.15V42.69h16.04v7.36l.58.15c.34-.6.73-1.17,1.01-1.8,1.93-4.32,4.96-6.79,9.98-6.58,5.22.22,9.31,2.13,11.37,7.11.86,2.08,1.58,4.4,1.59,6.61.12,18.69.07,37.38.07,56.59-4.99,0-9.9.07-14.8-.12-.42-.02-1.1-1.76-1.11-2.7-.08-11.73-.05-23.46-.05-35.19,0-4.01.02-8.01-.01-12.02,0-1.14-.12-2.28-.24-3.41-.26-2.42-1.25-4.36-4-4.29-2.58.06-3.53,2-3.8,4.25-.24,2.08-.45,4.17-.46,6.26-.04,14.5-.02,28.99-.02,43.49v3.66Z"/>
    <path class="cls-1" d="M666.94,105.3c-.32.56-.66,1.11-.96,1.68-2.12,4.06-5.28,5.85-10.22,5.67-5.32-.2-9.23-1.89-10.96-7.29-2.47-7.72-2.71-15.55-.62-23.35,1.11-4.12,3.74-7.33,7.77-9,4.39-1.83,8.87-3.46,13.35-5.03,1.49-.52,2.24-1.22,2.12-2.84-.19-2.56-.12-5.15-.5-7.67-.31-2.05-1.58-3.54-3.94-3.26-2.24.26-2.88,2-3.08,3.89-.15,1.41-.03,2.85-.03,4.51h-15.43c-2.77-9.92,2.97-18.73,13.71-20.39,6.27-.97,12.55-.8,18.29,2.67,4.75,2.87,7.22,7.24,7.28,12.55.19,18.09.07,36.18.07,54.52h-16.21v-6.54c-.22-.03-.45-.06-.67-.1ZM667.28,74.9c-3.83,1.65-6.95,3.37-7.31,7.16-.44,4.7-.28,9.46-.16,14.19.06,2.29,1.21,4.1,3.86,4.03,2.59-.08,3.3-2.08,3.37-4.16.18-5.5.18-11.02.24-16.52.02-1.38,0-2.77,0-4.7Z"/>
    <path class="cls-1" d="M1006.83,111.99h-16v-7.49c-.72,1.07-1.01,1.39-1.17,1.76-2.04,4.5-5.3,7.18-10.46,6.85-6.43-.42-9.51-2.69-11.34-8.61-2.24-7.25-2.38-14.64-.52-21.98,1.1-4.36,3.74-7.76,7.96-9.53,4.29-1.8,8.7-3.36,13.1-4.88,1.7-.59,2.53-1.42,2.35-3.28-.24-2.45-.17-4.94-.51-7.38-.28-1.99-1.6-3.29-3.72-3.27-2.32.03-3,1.85-3.29,3.67-.23,1.48-.05,3.03-.05,4.76h-15.5c-2.4-10.72,3.48-19.28,14.43-20.55,6.29-.73,12.56-.58,18.2,3.16,4.46,2.95,6.7,7.2,6.75,12.26.18,17.91.06,35.83.04,53.74,0,.17-.12.34-.27.76ZM990.44,75.09c-3.73,1.38-6.81,3.2-7.17,6.95-.47,4.89-.26,9.86-.08,14.78.07,1.9,1.27,3.41,3.49,3.47,2.24.06,3.22-1.36,3.57-3.33.21-1.21.36-2.45.37-3.67.04-5.04.03-10.07.01-15.11,0-.91-.11-1.81-.19-3.08Z"/>
    <path class="cls-1" d="M422.29,112.01h-15.99v-6.63c-.2-.07-.4-.13-.6-.2-.46.85-.9,1.71-1.38,2.55-2.07,3.61-5.14,5.61-9.37,5.39-4.59-.24-8.79-1.46-10.72-6.19-3.42-8.42-3.66-17.06-1.01-25.7,1.19-3.88,3.86-6.8,7.71-8.35,4.06-1.64,8.13-3.29,12.3-4.57,2.4-.73,2.92-1.93,2.95-4.29.03-2.56.27-6.08-.44-8.17-.43-1.28-2.52-1.87-3.78-1.56-2.05.5-2.93,1.5-3.25,3.23-.29,1.57-.19,3.22-.27,5.07h-15.31c-2.65-10.34,3.38-19.2,14.34-20.51,6.29-.75,12.56-.6,18.21,3.11,4.56,3,6.77,7.35,6.82,12.52.17,17.82.05,35.64.04,53.46,0,.18-.1.35-.25.83ZM405.88,75.43c-4.31.93-7.1,3.61-7.34,7.45-.26,4.25-.11,8.53-.1,12.8,0,.65-.08,1.46.6,3.06.57,1.37,2.4,1.35,3.12,1.35,1.03,0,3.4-.86,3.73-2.52.27-1.3.12-2.87.14-4.28.06-5.04.03-10.07.01-15.11,0-.91-.11-1.81-.17-2.76Z"/>
    <path class="cls-1" d="M854.7,85.63c.36,6.59.25,12.74-2.46,18.52-1.98,4.22-5.3,7.24-9.92,7.84-4.76.62-9.72,1.04-14.44.39-7.96-1.09-13.19-6.72-13.5-16.14-.4-12.1-.43-25.22-.13-37.32.24-9.5,6.67-16.02,16.19-16.87,3.66-.33,7.49-.21,11.09.49,7.75,1.5,12.41,6.38,13.02,14.26.56,7.19.12,14.45.12,22.05-4.8,0-9.45,0-14.09,0-2.48,0-4.97.12-7.45-.04-2.05-.13-2.97.43-2.87,2.66.23,4.85.2,9.72.4,14.57.1,2.4,1.03,4.33,3.89,4.34,2.84.01,3.79-1.8,3.9-4.28.13-2.76.08-5.53.34-8.28.07-.78.94-2.1,1.47-2.12,4.75-.17,9.5-.1,14.42-.1ZM838.34,70.69c0-4.44.14-8.59-.06-12.71-.1-2.05-1.01-4.06-3.49-4.15-2.54-.09-3.84,1.72-4.06,3.95-.36,3.76-.42,7.56-.44,11.34,0,.25,0,1.45,0,1.45"/>
    <path class="cls-1" d="M860.18,86.75c5.06,0,9.82-.07,14.57.09.59.02,1.54,1.22,1.62,1.96.23,2.17.07,4.38.15,6.57.12,3.1,1.57,4.69,4.2,4.74,2.14.04,3.32-1.61,3.56-4.63.34-4.21-.95-7.7-4.28-10.35-3.58-2.85-7.19-5.66-10.8-8.48-4.72-3.7-8.06-8.08-8.88-14.37-1.27-9.71,3.54-17.58,13.21-19.6,4.11-.86,8.62-1.07,12.75-.39,10.41,1.7,15.82,9.61,14.56,20.48h-16.39c-.29-1.94-.45-3.73-.85-5.47-.46-2.01-1.82-3.22-3.94-2.89-2.23.35-3.17,1.96-3.08,4.14.11,2.67,1.5,4.62,3.61,6.18,4.14,3.06,8.33,6.06,12.33,9.29,8.17,6.58,10.18,15.31,8.14,25.17-1.54,7.42-6.5,11.69-13.7,13.31-5.1,1.15-10.23.83-15.26-.72-7.18-2.22-10.54-7.56-11.45-14.57-.42-3.27-.07-6.63-.07-10.44Z"/>
    <path class="cls-1" d="M929.77,33.25c0-1.11-.02-2.83-.02-2.83,0,0,11.49-.04,16.12-.04v67.97h16.84v13.67c-1.73,0-23.69,0-32.86.13"/>
    <path class="cls-1" d="M356.66,57.84c-1.78-.1-3.09-.18-4.61-.26,0-3.99-.15-12.23,0-12.24,2.04-.22,2.9.09,4.72-.16.17-1.26-.13-11.89-.12-14.71,4.56-.17,10.88-.07,15.94-.07,0,3.33,0,6.43,0,9.54,0,2.36,0,4.55-.04,5.26,2.77.18,2.24-.04,4.66.14,0,3.91-.07,8.12-.06,12.22-1.43.08-2.74.16-4.39.25-.05.92-.15,1.83-.16,2.74,0,11.91,0,23.82,0,35.72,0,4.43.03,4.43,4.49,4.75v10.86c-4.75,1.35-9.64,1.78-14.51.53-3.68-.94-5.38-3.82-5.63-7.44-.25-3.7-.28-7.42-.29-11.13-.04-10.67-.02-21.34-.02-32.01v-3.98Z"/>
    <path class="cls-1" d="M780.63,45.21c2.28.06,3.13.1,4.62.25v12.08c-1.42.08-2.73.16-4.47.27v3.05c0,11.81,0,23.63,0,35.44q0,4.33,4.46,4.77v10.81c-4.77,1.35-9.57,1.71-14.36.55-3.77-.91-5.85-4.1-5.88-9.08-.1-13.43-.07-26.86-.1-40.3,0-1.69,0-3.38,0-5.18-1.69-.13-2.99-.24-4.69-.37,0-3.68-.08-7.27.09-10.85.16-1.21,1.27-1.33,1.93-1.33,2.74-.03,2.74.13,2.7-2.95-.11-3.87-.03-7.75-.03-11.82h15.76c0,4.71-.02,9.65-.02,14.65Z"/>
    <path class="cls-1" d="M429.42,33.87c0-1.74-.04-3.97-.04-3.97,0,0,1.83,0,4.12,0,4.08,0,8.17,0,12.44,0,0,27.63.08,54.61.08,82.1-5.08,0-8.08-.17-14.63-.03-.52.01-1.81-.03-1.81-.03"/>
    <path class="cls-1" d="M118.77,136.41s-.05,9.63-.05,12.73H30.43v-12.55"/>
    <path class="cls-1" d="M791.37,42.67h15.9c0,23.07-.03,45.97-.03,69.32-4.97,0-16.03-.03-16.03-.03,0,0-.01-2.57-.01-3.24,0-20.96,0-41.92,0-62.88,0-1.02.1-2.03.17-3.18Z"/>
    <path class="cls-1" d="M258.83,42.67h15.76v69.24h-15.76V42.67Z"/>
    <path class="cls-1" d="M754.79,112h-15.98V42.74h15.98v69.26Z"/>
    <path class="cls-1" d="M330.47,42.54c4.81,0,9.87-.05,14.61.07.53.01,1.57.02,1.57.02,0,0,0,2.61,0,3.18,0,20.96.06,66.14.06,66.14,0,0-.84.1-4.35.03s-6.17-.05-9.69.01c-1.51.03-2.28-.07-2.28-.07"/>
    <path class="cls-1" d="M536.13,208.21c-3.24-2.44-4.54-5.6-4.14-9.35.74-6.92,5.75-10.5,13.98-9.16,3.98.65,7.5-.03,11.18-.92.63-.15,1.28-.23,2.06-.36,1.46,5.62-4.08,3.29-5.73,5.29.32,1.24.8,2.49.95,3.78.9,7.71-3.88,12.5-12.05,12.11-2.21-.1-5.22-1.12-5.49,2.17-.25,3.03,2.95,2.59,4.94,3.04,3.06.69,6.24.96,9.24,1.84,5.91,1.74,7.19,7.54,2.57,11.67-4.84,4.32-10.72,5.08-16.63,3.18-6.38-2.05-7.14-7.62-1.98-11.75.64-.51,1.27-1.02,1.97-1.59-6.45-4.03-5.85-5.26-.86-9.95ZM550.25,199.25c-.03-4.31-2.45-6.8-6.69-6.88-4.21-.08-7.36,2.91-7.41,7.02-.05,4.29,2.91,7.26,7.16,7.17,4.43-.1,6.96-2.77,6.94-7.32ZM542.95,229.25c.86-.04,1.47-.07,2.4-.25,2.72-.72,3.03-.98,5.18-2.49,2.64-1.85,2.01-5.09-1.02-6.22-2.12-.79-4.44-1.01-6.61-1.68-3.02-.93-7.09,3.28-7.32,5.49-.26,2.49,2.36,4.71,5.05,4.85.47.03,1.29.14,2.33.29Z"/>
    <path class="cls-1" d="M100.82,188.31c1.39,5.77-3.99,3.4-5.36,5.04.26,2.59.87,4.95.64,7.23-.59,5.91-4.89,9.15-11.45,9.02-1.05-.02-2.22-.5-3.11-.16-1.16.45-2.1,1.5-3.13,2.29.76.82,1.39,2.11,2.31,2.37,2.83.8,5.77,1.2,8.67,1.76.75.14,1.5.29,2.23.47,2.98.75,5.79,1.82,6.3,5.34.5,3.39-1.19,5.88-3.88,7.71-4.64,3.14-9.78,3.59-15.07,2.26-2.97-.74-4.98-2.77-5.7-5.83-.71-3.02,1.61-4.43,3.43-6.07.61-.55,1.27-1.04,1.64-1.33-1.56-1.69-3.92-3.12-4.1-4.78-.18-1.66,1.83-3.56,3.1-5.74-2.65-1.92-3.9-5.09-3.64-8.96.32-4.79,3.17-8.42,7.86-9.19,2.23-.37,4.7-.6,6.82,0,2.98.84,5.63.18,8.39-.46,1.28-.3,2.56-.62,4.05-.98ZM77.91,199.57c.04,4.26,2.78,7.02,6.95,7,4.39-.01,7.29-2.99,7.21-7.4-.08-4.19-2.84-6.84-7.11-6.81-4.32.03-7.1,2.87-7.06,7.21ZM84.51,229.1s.95.03,2.02-.07c3.62-.89,3.31-.88,5.42-2.29,3.01-2.02,2.44-5.28-.96-6.51-2.04-.74-4.27-.95-6.35-1.61-3.01-.94-7.06,3.06-7.38,5.41-.34,2.49,2.23,4.72,5.82,5.02.47.04,1.42.04,1.42.04Z"/>
    <path class="cls-1" d="M801.96,177.68h4.61c0,2.33,0,4.58,0,6.84-.01,6.76-.13,13.53-.01,20.29.12,7.25,3.82,10.97,10.65,11.05,6.99.08,11.06-3.64,11.24-10.82.16-6.66-.13-13.34-.21-20-.03-2.36,0-4.73,0-7.3h4.33c.08.11.29.26.29.41.02,9.52.43,19.07-.1,28.56-.51,9.06-7.98,14.3-17.59,13.29-7.89-.84-12.54-4.63-13.05-12.55-.64-9.83-.15-19.74-.15-29.76Z"/>
    <path class="cls-1" d="M232.43,205.06c0,2.59,0,4.97,0,7.34s0,4.54,0,7.02h-4.32v-42.18c5.98.34,12.03.43,18,1.19,1.78.23,3.75,2.01,4.91,3.6,5.88,8.04.83,20.44-8.96,22.15-3.06.53-6.2.58-9.63.88ZM232.61,191.1c-.06,0-.12,0-.18,0,0,1.24,0,2.48,0,3.71-.05,6.48.12,6.64,6.69,6.05,5.05-.45,8.52-3.85,8.96-8.76.54-6.16-1.2-9.28-6.38-10.35-2.46-.51-5.11-.24-7.65-.05-.53.04-1.32,1.26-1.37,1.98-.17,2.46-.07,4.95-.07,7.42Z"/>
    <path class="cls-1" d="M186.84,219.63v11.92h-4.5v-41.52c1.33-.15,2.6-.3,4.03-.46.18,1.45.33,2.63.53,4.27,1.05-.62,1.85-1.03,2.59-1.53,8.25-5.53,15.48-2.71,17.32,7.03.55,2.93.53,6.13,0,9.07-1.56,8.55-7.68,12.74-16.39,11.68-1.1-.13-2.2-.27-3.56-.44ZM186.56,206.19s.01,0,.02,0c0,2.28-.08,4.57.04,6.85.04.75.39,1.75.94,2.17,4.54,3.35,12.28,1.37,13.88-4.01,1.04-3.49,1.06-7.48.68-11.16-.49-4.75-3.58-7.06-7.64-6.7-4.56.41-7.9,3.9-7.92,8.27,0,1.52,0,3.05,0,4.57Z"/>
    <path class="cls-1" d="M136.59,173.71v20.41c1.16-.84,1.86-1.39,2.61-1.88,2.65-1.74,5.32-3.27,8.75-2.78,4.28.61,7.09,2.76,7.27,7.07.32,7.58.09,15.19.09,22.95h-4.48c0-4.6-.02-9.23,0-13.86.01-2.19.25-4.39.15-6.57-.21-4.54-3.28-6.88-7.57-5.42-4.33,1.47-7.5,3.05-7.2,8.77.29,5.59.06,11.22.06,17.04h-4.49c0-.77,0-1.5,0-2.24.01-13.15-.01-26.3.03-39.45,0-1.56-.02-3.93-.02-3.93,0,0,2.25-.03,4.79-.1Z"/>
    <path class="cls-1" d="M922.04,204.22c-.87,10.72,7.27,14.77,18.45,9.54.37,2.7-2.09,5.23-5,5.6-3.44.45-5.14.53-8.54.15-3.94-.44-6.75-3.19-8.17-6.83-2.11-5.42-2.17-10.99.27-16.38,2.8-6.17,10.45-9.01,16.69-6.33,4.41,1.89,7.4,8.19,5.8,12.69-.25.71-1.65,1.42-2.54,1.45-4.57.16-9.15.09-13.73.1-1.03,0-2.06,0-3.23,0ZM922.44,200.9c4.53,0,8.9.07,13.25-.08.57-.02,1.52-1.11,1.58-1.77.28-3.17-1.99-5.89-5.15-6.49-4.89-.92-9,2.49-9.69,8.34Z"/>
    <path class="cls-1" d="M352.56,213.9c.63,2.93-.55,4.41-3.33,5.27-10.25,3.17-18-1.09-19.53-11.17-.39-2.57-.15-5.34.32-7.92,1.47-8.2,8.55-12.6,16.58-10.53,5.27,1.36,9.06,8.41,7.07,13.45-.25.63-1.64,1.11-2.51,1.13-4.86.12-9.73.16-14.6.05-2.22-.05-2.78.66-2.45,2.85,1.11,7.43,6.42,10.81,13.95,8.63,1.53-.44,2.98-1.16,4.5-1.76ZM334.63,200.96c3.62,0,7.23.02,10.83,0,4.27-.03,5.21-1.82,3-5.62-1.44-2.47-3.74-3.15-6.36-2.86-4.32.48-7.11,3.67-7.48,8.49Z"/>
    <path class="cls-1" d="M583.62,204.19c-.59,10.95,6.2,14.32,18.45,9.69.53,3.12-.89,4.6-3.89,5.42-12.03,3.3-20.67-3.47-19.2-16.86,1.11-10.08,8.32-15.25,17.16-12.87,5.21,1.4,9.07,8.9,6.83,13.59-.29.62-1.72.96-2.62.98-5.51.09-11.03.04-16.72.04ZM583.88,200.91c4.56,0,8.93.05,13.29-.07.55-.02,1.45-.88,1.56-1.47.56-2.91-1.57-5.95-4.49-6.66-5.18-1.27-9.2,1.79-10.37,8.2Z"/>
    <path class="cls-1" d="M279.3,204.61c.15-1.59.16-3.23.49-4.8,1.49-7.08,6.88-11.2,13.97-10.77,6.86.42,11.26,4.99,11.85,12.6.18,2.34.07,4.77-.35,7.08-1.63,8.93-8.13,13.08-16.9,10.95-4.72-1.15-8.04-5.09-8.74-10.48-.2-1.51-.21-3.03-.32-4.57ZM283.5,204.29c0,2.73.86,5.27,1.82,7.69,1.74,3.69,3.94,4.65,7.48,4.64,3.57-.01,6.11-1.54,7.32-4.83,1.86-5.03,1.58-10.1-.59-14.98-1.32-2.96-3.84-4.48-7.08-4.42-3.41.06-6.18,1.53-7.37,4.86-.78,2.2-1.58,4.31-1.58,7.04Z"/>
    <path class="cls-1" d="M4.6,216.04c.02,1.11,0,2.23,0,3.46H0v-41.72h21.94v3.94H4.53c0,4.7.1,15.19.1,15.19,0,0,.62-.08,1.38-.03,3.04.18,6.81.07,9.87.07.92,0,1.85,0,3.08,0-.19,1.47-.33,2.56-.49,3.85-3.57,0-6.99,0-10.41,0-2.02,0-3.48,0-3.48,0"/>
    <path class="cls-1" d="M419.83,196.52c-1.37-2.52-.58-4.09,1.84-5.19,3.52-1.62,7.09-2.78,11.03-1.89,4.4.99,6.56,3.53,6.46,8.05-.1,4.47-.39,8.94-.69,13.41-.31,4.68-.21,4.84,4.45,5.18.31,2.35-.87,3.42-3.07,3.71-2.75.36-4.14-.74-5.48-4.62-1.72,1.23-3.37,2.41-5.02,3.58-2.57,1.81-5.23,1.54-7.82.12-2.68-1.47-3.81-3.9-3.81-6.88,0-3.48,1.89-5.76,5.77-6.81,2.94-.8,5.91-1.48,8.89-2.1,1.66-.34,2.29-1.11,2.42-2.86.61-8.21-4.94-8.65-9.88-6.71-1.81.71-3.39,1.98-5.11,3.01ZM434.19,205.68c-2.95.67-5.89,1.29-8.8,2.01-2.29.57-3.81,1.84-3.27,4.47.5,2.44,1.94,3.82,4.56,3.84,4.94.03,8.23-4.27,7.52-10.32Z"/>
    <path class="cls-1" d="M501.91,196.68c-1.39-2.7-.52-4.23,1.73-5.32,3.69-1.77,7.45-2.89,11.59-1.84,3.81.96,5.96,3.39,5.91,7.32-.06,4.76-.4,9.52-.59,14.28-.18,4.57-.17,4.57,4.46,4.97.31,2.21-.76,3.3-2.86,3.64-2.8.45-4.4-.75-5.76-4.57-1.72,1.24-3.32,2.54-5.07,3.6-2.95,1.79-6.14,1.5-8.75-.6-2.48-1.98-3.4-5.34-2.4-8.53.89-2.84,3.22-3.88,5.76-4.56,2.85-.76,5.72-1.47,8.62-2.04,1.74-.34,2.43-1.22,2.27-2.94-.1-1.04.07-2.12-.1-3.14-.43-2.52-1.79-4-4.54-4.3-4.09-.44-7.09,1.69-10.25,4.02ZM516.3,205.64c-3.24.75-6.31,1.36-9.32,2.19-1.88.52-3.27,1.7-2.9,3.95.37,2.25,1.41,3.92,3.96,4.17,5.15.52,9.06-4.08,8.26-10.32Z"/>
    <path class="cls-1" d="M66.57,216.15c.49,2.46-.88,3.26-2.78,3.59-2.86.5-4.08-.43-5.8-4.59-1.45,1.1-2.83,2.18-4.24,3.2-2.85,2.08-5.79,2.14-8.8.32-3.02-1.84-3.62-4.67-3.33-7.91.26-2.88,2.1-4.43,4.6-5.21,2.81-.88,5.66-1.77,8.56-2.15,3.06-.4,4.09-1.83,3.6-4.7-.08-.46,0-.95-.04-1.43-.24-2.83-1.68-4.2-4.49-4.58-4.08-.56-7.09,1.63-10.21,3.92-1.29-2.17-1.11-3.74,1.17-4.95,3.9-2.07,7.91-3.24,12.34-2.09,3.54.92,5.59,3.29,5.55,6.97-.05,4.85-.42,9.69-.57,14.54-.14,4.57-.09,4.57,4.42,5.06ZM57.92,205.67c-3.02.69-6.06,1.3-9.05,2.08-1.99.52-3.45,1.69-3.08,4.06.37,2.39,1.55,4.01,4.21,4.17,5.18.31,8.99-4.44,7.91-10.31Z"/>
    <path class="cls-1" d="M726.54,196.54c-1.23-2.45-.57-3.99,1.61-5.07,3.75-1.86,7.6-3.02,11.84-1.93,3.77.97,5.88,3.43,5.83,7.38-.07,4.66-.41,9.32-.56,13.99-.16,4.76-.12,4.76,4.41,5.22.37,2.27-.81,3.28-2.88,3.63-2.86.49-4.25-.58-5.73-4.59-1.64,1.19-3.15,2.44-4.81,3.47-3.14,1.95-6.26,1.73-9-.45-2.44-1.94-3.39-5.33-2.39-8.54.87-2.83,3.21-3.88,5.75-4.56,2.94-.79,5.9-1.52,8.88-2.13,1.51-.31,1.94-1.07,2.01-2.54.32-7.1-3.64-9.8-10.17-6.76-1.62.75-3.08,1.85-4.78,2.89ZM740.93,205.67c-3.14.72-6.1,1.31-9.01,2.08-1.99.52-3.54,1.64-3.15,4.03.38,2.37,1.56,4.04,4.24,4.2,5.11.3,8.89-4.3,7.93-10.31Z"/>
    <path class="cls-1" d="M780.64,219.52h-4.58c0-5.81,0-11.5,0-17.19,0-.29.04-.57.05-.86.25-5.13-.71-7.2-3.7-7.98-3.05-.8-9.08,1.68-10.54,4.5-.41.78-.4,1.84-.4,2.77-.03,6.18-.02,12.35-.02,18.71h-4.24v-29.33c1.2-.19,2.53-.41,4.01-.65.25,1.59.45,2.85.69,4.34,2.08-1.25,3.85-2.52,5.78-3.44,6.38-3.04,12.4.45,12.92,7.41.02.28.02.57.02.86,0,6.85,0,13.7,0,20.87Z"/>
    <path class="cls-1" d="M865.93,219.57h-4.44c0-5.35,0-10.64,0-15.94,0-1.62.2-3.25.08-4.86-.31-4.35-3.39-6.68-7.51-5.13-5.48,2.06-7.67,3.3-7.27,9.22.37,5.48.08,11,.08,16.63h-4.47c0-.97,0-1.89,0-2.81.02-7.72.05-15.44.04-23.16,0-3.9-.05-3.9,4.26-3.79.18,1.21.37,2.48.62,4.23.97-.68,1.67-1.2,2.41-1.67,2.58-1.65,5.12-3.26,8.46-2.87,4.64.54,7.44,2.72,7.64,7.34.33,7.49.09,15.01.09,22.8Z"/>
    <path class="cls-1" d="M676.75,219.47c0-9.41-.03-18.54.01-27.68.01-3.07,2.44-1.78,4.11-2.21.23,1.4.44,2.66.73,4.41,1.13-.8,1.93-1.38,2.75-1.94,3.37-2.32,6.94-3.58,11.02-1.94,2.7,1.09,4.58,3,4.64,5.95.14,7.7.05,15.41.05,23.35h-4.39c0-3.93-.01-7.81,0-11.69,0-2.57.08-5.15.08-7.72.02-5.92-3.55-8.27-9-5.84-3.55,1.59-6.12,3.65-5.72,8.36.47,5.56.11,11.18.11,16.95h-4.4Z"/>
    <path class="cls-1" d="M1042.7,213.94c2.92-7.99,5.84-15.87,8.86-24.15h3.81c-2.09,5.62-4.13,11.12-6.19,16.62-1.91,5.07-3.81,10.15-5.79,15.2-2.1,5.35-6.08,8.5-11.57,10.16-.9.27-.3.08-2.49.58-.73-.87-1.4-1.64-1.91-3.21,1.36-.45,2.6-.88,3.85-1.28,3.23-1.03,5.63-3.07,7.53-5.84,1-1.46,1.16-2.76.5-4.48-3.12-8.17-6.09-16.41-9.11-24.62-.32-.88-.63-1.77-.94-2.64,1.56-.6,3.65-1.13,3.65-1.13,0,0,.77,1.49,1.4,3.37,2.41,7.19,4.96,14.23,7.46,21.39.44,1.09.44,1.01.94.03Z"/>
    <path class="cls-1" d="M478.32,181.38c.08-1.49.14-2.51.21-3.83,3.96,0,7.75,0,11.54,0,2.03,0,1.56,1.57,1.55,2.7-.03,6.95-.14,13.91-.19,20.86-.02,3.24.01,6.48.04,9.71.06,7.98-3.07,12.32-11.06,15.14-.55-.78-1.13-1.61-1.82-2.6.73-.56,1.27-1.08,1.9-1.43,4.69-2.61,6.87-6.4,6.64-11.93-.32-7.89-.11-15.81-.18-23.71-.05-5.63.48-4.9-4.86-4.91-1.13,0-2.25,0-3.78,0Z"/>
    <path class="cls-1" d="M969.52,214.23c2.85.81,5.59,1.87,8.43,2.32,2.47.39,4.56-.84,5.31-3.38.8-2.71-.84-4.29-3.07-5.41-1.96-.99-3.91-1.99-5.87-2.97-3.22-1.61-4.99-4.15-4.63-7.8.36-3.73,2.64-6.19,6.12-7.15,3.62-1,7.34-.99,11.02.92-.15,1.2-.3,2.38-.5,3.96-1.34-.55-2.32-1.13-3.38-1.34-1.66-.33-3.51-.9-5-.46-1.41.41-3.08,1.82-3.5,3.14-.36,1.14.47,3.27,1.48,4.11,1.87,1.55,4.26,2.47,6.43,3.65,4.63,2.52,6.04,4.91,5.32,9.04-.64,3.67-3.59,6.44-8.07,6.96-2.4.28-4.95.05-7.34-.41-3.81-.74-4.19-1.82-2.75-5.17Z"/>
    <path class="cls-1" d="M121.22,194.36c-2.27-.6-4.32-1.38-6.43-1.65-2.47-.31-4.6.62-5.38,3.22-.79,2.62.91,4.11,2.91,5.24,2.15,1.21,4.46,2.16,6.58,3.43,5.44,3.27,5.44,10.5-.02,13.8-4.48,2.7-9.22,2.13-13.68.13-.91-.41-.91-2.87-1.32-4.38.28-.15.56-.3.84-.46.7.38,1.36.89,2.1,1.1,2.34.66,4.68,1.54,7.07,1.71,2.24.16,4.03-1.23,4.59-3.55.55-2.27-.6-3.84-2.57-4.87-2.19-1.14-4.42-2.22-6.6-3.4-3.49-1.89-4.97-4.67-4.45-8.15.49-3.26,3.06-6.25,6.48-6.81,2.4-.4,4.95-.4,7.36-.1,3.44.43,3.62.99,2.53,4.73Z"/>
    <path class="cls-1" d="M901.45,214.61c2.96-8.2,5.93-16.4,8.98-24.84h3.89c-2.76,7.55-5.46,14.94-8.17,22.34-.65,1.79-1.46,3.53-1.97,5.36-.46,1.63-1.25,2.17-2.99,2.25-2.41.11-3.42-.66-4.12-3.04-2.57-8.85-5.43-17.61-8.18-26.4,3.57-1.4,3.98-1.09,4.96,2.26,2.16,7.37,4.48,14.7,6.73,22.05.29,0,.58.02.87.02Z"/>
    <path class="cls-1" d="M381.17,191.01c-.29,1.36-.56,2.63-.85,3.98-1.95-.65-3.59-1.37-5.31-1.73-4.26-.92-7.89.73-9.06,4.87-.92,3.28-1.33,6.98-.83,10.33.98,6.55,5.91,9.17,12.25,7.17,1.16-.37,2.27-.91,3.42-1.38.51,3.83.05,4.54-3.4,5.34-9.91,2.3-16.42-2.46-17.13-12.7-.16-2.35-.14-4.8.33-7.1,1.92-9.41,10.72-13.23,20.58-8.78Z"/>
    <path class="cls-1" d="M48.11,130.22v-3.95h52.22c.03,2.35.05,3.96.05,3.96,0,0-1.51,0-2.88,0-15.47.01-30.94,0-46.41,0-.94,0-1.52.03-2.97,0Z"/>
    <path class="cls-1" d="M1017.8,182.86v6.66h9.12c-.13,1.31-.22,2.2-.33,3.27-2.37,0-4.56.07-6.74-.02-1.62-.07-2.22.62-2.22,2.17-.02,5.61-.16,11.23-.12,16.84.02,2.91,1.41,4.19,4.29,4.1,1.57-.05,3.12-.48,4.72-.75.66,2.2-.31,3.27-2.37,3.99-6.3,2.19-10.95-.96-10.99-7.6-.03-6.08,0-12.16,0-18.47-1.33-.16-2.51-.29-3.89-.46v-2.82c1.2-.11,2.32-.21,3.45-.31.39-1.68.45-3.55,1.3-4.94.54-.89,2.26-1.05,3.79-1.67Z"/>
    <path class="cls-1" d="M451.49,192.99c-1.42-.15-2.61-.28-3.91-.42v-2.77c1.27-.13,2.47-.25,3.63-.37,1-5.49,1.05-5.55,5.02-6.13v6.23h9.32c-.22,1.3-.37,2.18-.55,3.3h-9.03c0,6.79-.14,13.35.07,19.89.08,2.33,1.95,3.42,4.29,3.18,1.57-.16,3.12-.55,4.74-.84.43,2.18-.41,3.39-2.64,4.13-6.13,2.02-10.82-1.13-10.88-7.58-.05-5.14.07-10.29.09-15.43,0-1.02-.1-2.04-.16-3.17Z"/>
    <path class="cls-1" d="M402.37,214.82c.34,2.36-.49,3.58-2.53,4.3-6.32,2.24-10.88-.88-10.92-7.62-.03-6.08,0-12.16,0-18.48-1.5-.14-2.79-.26-4.13-.39-1.16-3.91,2.2-2.65,3.76-3.28q1.11-5.32,4.77-6.18v6.28h9.06v3.33c-2.35,0-4.53.08-6.7-.03-1.75-.09-2.32.59-2.33,2.32-.02,4.96-.22,9.91-.3,14.87-.09,5.35,2.31,7.11,7.4,5.48.54-.17,1.08-.35,1.92-.61Z"/>
    <path class="cls-1" d="M315.71,192.74h-6.42c.26-1.26.45-2.15.64-3.07h10.64c0,2.83,0,5.64,0,8.44,0,6.46-.14,12.93.06,19.39.21,6.82-2.4,11.78-8.98,14.68-.52-.58-1.13-1.25-2.08-2.29,6.79-3.36,6.66-9.46,6.61-15.55-.05-5.99-.07-11.99-.14-17.98-.01-1.11-.19-2.22-.32-3.62Z"/>
    <path class="cls-1" d="M32.55,219.5h-4.43c0-5.91.02-11.68,0-17.46-.03-8.18-.1-16.37-.14-24.55,0-1.73.12-2.59-.1-3.65,1.14.1,2.57.17,4.68.05v45.62Z"/>
    <path class="cls-1" d="M616.79,219.49c-1.48,0-2.9.02-4.36.02-.07-.86-.04-1.61-.04-2.35,0-13.23,0-43.6,0-43.6,0,0,.15.15,4.4.05v45.88Z"/>
    <path class="cls-1" d="M633.27,173.81v45.67h-4.41c0-15.02.04-30.24.04-45.62,1.35-.19,2.73.1,4.37-.05Z"/>
    <path class="cls-1" d="M738.75,26.31h16.06v10.95h-16.06v-10.95Z"/>
    <path class="cls-1" d="M338.73,26.26c3.44,0,6.33,0,7.75-.06.13,3.17-.06,6.61.03,11.08-2.53,0-13.57.1-16.25.07,0-2.72,0-7.15-.09-11.15,1.99,0,6.56.06,8.56.06Z"/>
    <path class="cls-1" d="M264.99,219.52h-4.18v-29.49c1.28-.16,2.56-.32,4.2-.52v5.09c1.42-1.08,2.94-2.54,4.71-3.51,1.66-.9,3.61-1.28,5.8-2.02v5.54c-4.96-1.35-7.53,1.45-9.43,5.15-.62,1.22-1.04,2.67-1.07,4.03-.12,5.13-.05,10.26-.05,15.71Z"/>
    <path class="cls-1" d="M955.04,189.76v5.53c2.75-3.11,5.4-5.99,10.32-5.61.07,1.45.15,2.89.25,5-4.72-1.41-7.36,1.03-9.21,4.54-.76,1.45-1.29,3.18-1.35,4.81-.17,5.11-.06,10.22-.06,15.46h-4.38c0-1.92,0-3.7,0-5.48,0-6.85,0-13.71-.02-20.56,0-1.7-.04-3.75-.04-3.75,0,0,1.97-.04,4.48.06Z"/>
    <path class="cls-1" d="M170.74,219.49h-4.5c0-5.95.01-11.81,0-17.67,0-2.75-.07-5.51-.1-8.26-.04-3.98.24-4.21,4.6-3.68v29.61Z"/>
    <path class="cls-1" d="M876.97,189.99c1.46-.14,2.83-.28,4.35-.42v29.96h-4.35v-29.53Z"/>
    <path class="cls-1" d="M569.84,189.75v29.72h-4.29c0-2.92,0-5.75,0-8.58,0-5.81-.02-11.63-.03-17.44q-.01-3.87,4.32-3.7Z"/>
    <path class="cls-1" d="M715.46,189.89v29.53h-4.36c0-.85,0-1.76,0-2.67,0-7.82.02-15.64.02-23.45,0-3.68.21-3.87,4.34-3.41Z"/>
    <path class="cls-1" d="M996.69,190.04c1.44-.18,2.65-.34,4.18-.53v29.89h-4.18v-29.36Z"/>
    <path class="cls-1" d="M171.6,179.52c-.11,1.43-1.17,2.19-3.23,2.23-1.86.03-2.64-1.46-2.56-2.85.06-1.07.54-2.53,2.6-2.59,1.71-.05,3.18.46,3.19,3.21Z"/>
    <path class="cls-1" d="M64.24.99c-9.17-1.63-18.2-1.55-26.89,2.53-1.94.91-2.54,1.97-2.53,4.07.08,23.17.05,46.35.06,69.52,0,.9.1,1.79.16,3.01,11.62-6.13,23.45-5.27,35.65-2.3V8.85c0-6.62.02-6.71-6.45-7.86ZM41,14.59c7.74-1.62,15.47-2.41,23.13.41,1.91.7,3.65,1.67,2.94,4.1-.75,2.58-2.73,2.38-4.88,1.9-3.33-.74-3.42-1.99-9.57-1.81-6.55.15-7.01.95-10.21,1.44-2.11.32-3.97.03-4.46-2.36-.47-2.28,1.08-3.27,3.06-3.68ZM41.66,29.63c3.76-.52,5.05-1.14,12.04-1.64,5.72.42,7.42,1.06,10.74,2.33,1.87.71,3.3,1.79,2.64,3.97-.69,2.25-2.41,2.7-4.55,1.95-6.51-2.29-13.09-1.87-19.71-.55-2.77.55-4.75-.37-4.91-2.36-.21-2.61,1.6-3.4,3.76-3.7ZM67.01,49.4c-.03.96-1.46,1.49-2.16,2.25-2.17-.63-3.75-.76-5.2-1.03-5.49-1-9.62-.59-16.16.15-.84.1-1.86.57-2.5.26-1.15-.57-2.72-1.48-2.91-2.47-.18-.97.95-2.98,1.86-3.22,8.41-2.19,16.9-3.09,25.17.51,1.02.44,1.94,2.35,1.9,3.55ZM67.06,64.85c-.93,2.58-2.8,2.18-4.93,1.68-3.03-.72-4.89-1.46-8.73-1.55-6.86.2-7.19.86-10.48,1.34-2.69.4-4.81-.49-5-2.45-.26-2.71,1.57-3.5,3.87-3.94,7.39-1.42,14.73-1.84,22.02.57,2.92.96,3.99,2.32,3.26,4.36Z"/>
    <path class="cls-1" d="M106.44,1.91c-.09-.03-.19-.03-.28-.06-8.72-2.87-17.49-1.92-26.29-.38-2.19.38-2.9,1.34-2.9,3.6.08,23.25.05,46.51.06,69.76,0,.84.11,1.68.15,2.32,6.03-.57,11.91-1.79,17.72-1.49,5.87.31,11.66,2.14,17.72,3.36V10.06c0-6.21-.09-6.33-6.19-8.15ZM82.63,14.91c4.14-.99,8.67-2.22,13.18-2.23s6.93,1.06,11.21,2.56c1.95.51,3.2,1.85,2.45,4.05-.76,2.2-2.6,2.42-4.47,1.79-6.54-2.23-13.12-1.81-19.74-.56-.56.11-1.29.4-1.67.17-.56-.11-1.98-.96-2.68-1.8-.21-.23-.35-.47-.4-.72-.16-.99,1.13-3.03,2.11-3.26ZM84.1,29.65c3.92-.96,8.13-1.63,12.05-1.66s10.73,2.33,10.73,2.33c1.92.48,3.33,1.77,2.63,3.98-.71,2.23-2.42,2.7-4.57,1.94-6.51-2.3-13.11-1.91-19.72-.52-2.17.46-4.08.42-4.82-2.09-.6-2.03.75-3.5,3.69-3.98ZM80.16,48.29c-.07-1.9,1.57-3.24,4.76-3.7,2.32-.59,5.96-1.48,11.29-1.49,5.33-.01,6.83.99,10.64,2.41,2.05.53,3.41,1.87,2.62,4.23-.76,2.27-2.59,2.33-4.46,1.7-6.25-2.11-12.56-1.78-18.89-.55-3.58.7-5.56.02-5.94-2.12-.03-.16-.03-.31-.03-.47ZM109.53,64.54c-.43,1.17-.46,1.32-2.51,2.32-12.85-2.88-15.44-1.63-22.83-.42-1.87.31-3.48-.42-3.82-2.54-.34-2.06.85-3.37,2.71-3.76,8.03-1.69,16.06-2.18,24,.56,1.8.62,3.17,1.88,2.45,3.84Z"/>
    <path class="cls-1" d="M320.25,179.37c-.11,1.43-1.17,2.19-3.23,2.23-1.86.03-2.64-1.46-2.56-2.85.06-1.07.54-2.53,2.6-2.59,1.71-.05,3.18.46,3.19,3.21Z"/>
    <path class="cls-1" d="M570.54,179.61c-.11,1.43-1.17,2.19-3.23,2.23-1.86.03-2.64-1.46-2.56-2.85.06-1.07.54-2.53,2.6-2.59,1.71-.05,3.18.46,3.19,3.21Z"/>
    <path class="cls-1" d="M716.13,179.45c-.11,1.43-1.17,2.19-3.23,2.23-1.86.03-2.64-1.46-2.56-2.85.06-1.07.54-2.53,2.6-2.59,1.71-.05,3.18.46,3.19,3.21Z"/>
    <path class="cls-1" d="M881.95,179.29c-.11,1.43-1.17,2.19-3.23,2.23-1.86.03-2.64-1.46-2.56-2.85.06-1.07.54-2.53,2.6-2.59,1.71-.05,3.18.46,3.19,3.21Z"/>
    <path class="cls-1" d="M1001.57,179.37c-.11,1.43-1.17,2.19-3.23,2.23-1.86.03-2.64-1.46-2.56-2.85.06-1.07.54-2.53,2.6-2.59,1.71-.05,3.18.46,3.19,3.21Z"/>
    <path class="cls-1" d="M267.13,25.99c3.44,0,6.33,0,7.75-.06.13,3.17-.06,6.95.03,11.42-2.53,0-13.5-.07-16.17-.1,0-2.72-.07-7.33-.17-11.32,1.99,0,6.56.06,8.56.06Z"/>
    <path class="cls-1" d="M791.23,26.29h16.06v10.95h-16.06v-10.95Z"/>
    <path class="cls-1" d="M642.62,204.42c.15-1.59.16-3.23.49-4.8,1.49-7.08,6.88-11.2,13.97-10.77,6.86.42,11.26,4.99,11.85,12.6.18,2.34.07,4.77-.35,7.08-1.63,8.93-8.13,13.08-16.9,10.95-4.72-1.15-8.04-5.09-8.74-10.48-.2-1.51-.21-3.03-.32-4.57ZM646.83,204.1c0,2.73.86,5.27,1.82,7.69,1.74,3.69,3.94,4.65,7.48,4.64,3.57-.01,6.11-1.54,7.32-4.83,1.86-5.03,1.58-10.1-.59-14.98-1.32-2.96-3.84-4.48-7.08-4.42-3.41.06-6.18,1.53-7.37,4.86-.78,2.2-1.58,4.31-1.58,7.04Z"/>
  </g>
</svg>